<mxfile host="app.diagrams.net" modified="2022-05-05T12:56:18.394Z" agent="5.0 (Macintosh; Intel Mac OS X 10_15_7) AppleWebKit/537.36 (KHTML, like Gecko) Chrome/100.0.4896.127 Safari/537.36" etag="yhgWGfpsqJnnIsxAgMsv" version="17.5.0" type="github">
  <diagram id="qOHGim6ZNj6yDlQAbPKv" name="第 1 页">
    <mxGraphModel dx="1426" dy="794" grid="1" gridSize="10" guides="1" tooltips="1" connect="1" arrows="1" fold="1" page="1" pageScale="1" pageWidth="827" pageHeight="1169" math="0" shadow="0">
      <root>
        <mxCell id="0" />
        <mxCell id="1" parent="0" />
        <mxCell id="G4z690N9QdItLMLLU8V_-1" value="Consumer-1" style="rounded=0;whiteSpace=wrap;html=1;verticalAlign=top;" vertex="1" parent="1">
          <mxGeometry x="30" y="160" width="320" height="190" as="geometry" />
        </mxCell>
        <mxCell id="G4z690N9QdItLMLLU8V_-24" style="edgeStyle=orthogonalEdgeStyle;rounded=0;orthogonalLoop=1;jettySize=auto;html=1;entryX=0;entryY=0.5;entryDx=0;entryDy=0;fontSize=14;curved=1;fillColor=#dae8fc;strokeColor=#6c8ebf;strokeWidth=2;" edge="1" parent="1" source="G4z690N9QdItLMLLU8V_-2" target="G4z690N9QdItLMLLU8V_-13">
          <mxGeometry relative="1" as="geometry" />
        </mxCell>
        <mxCell id="G4z690N9QdItLMLLU8V_-2" value="/v1/order/create" style="rounded=0;whiteSpace=wrap;html=1;fillColor=#dae8fc;strokeColor=#6c8ebf;fontStyle=1;fontSize=14;" vertex="1" parent="1">
          <mxGeometry x="160" y="210" width="250" height="40" as="geometry" />
        </mxCell>
        <mxCell id="G4z690N9QdItLMLLU8V_-25" style="edgeStyle=orthogonalEdgeStyle;curved=1;rounded=0;orthogonalLoop=1;jettySize=auto;html=1;entryX=0;entryY=0.5;entryDx=0;entryDy=0;fontSize=14;fillColor=#d5e8d4;strokeColor=#82b366;strokeWidth=2;" edge="1" parent="1" source="G4z690N9QdItLMLLU8V_-3" target="G4z690N9QdItLMLLU8V_-14">
          <mxGeometry relative="1" as="geometry" />
        </mxCell>
        <mxCell id="G4z690N9QdItLMLLU8V_-3" value="/v1/item/save" style="rounded=0;whiteSpace=wrap;html=1;fillColor=#d5e8d4;strokeColor=#82b366;fontStyle=1;fontSize=14;" vertex="1" parent="1">
          <mxGeometry x="160" y="270" width="250" height="40" as="geometry" />
        </mxCell>
        <mxCell id="G4z690N9QdItLMLLU8V_-4" value="Consumer-2" style="rounded=0;whiteSpace=wrap;html=1;verticalAlign=top;" vertex="1" parent="1">
          <mxGeometry x="30" y="380" width="320" height="190" as="geometry" />
        </mxCell>
        <mxCell id="G4z690N9QdItLMLLU8V_-26" style="edgeStyle=orthogonalEdgeStyle;curved=1;rounded=0;orthogonalLoop=1;jettySize=auto;html=1;entryX=0;entryY=0.5;entryDx=0;entryDy=0;fontSize=14;fillColor=#ffe6cc;strokeColor=#d79b00;strokeWidth=2;" edge="1" parent="1" source="G4z690N9QdItLMLLU8V_-5" target="G4z690N9QdItLMLLU8V_-22">
          <mxGeometry relative="1" as="geometry" />
        </mxCell>
        <mxCell id="G4z690N9QdItLMLLU8V_-5" value="/v2/order/create" style="rounded=0;whiteSpace=wrap;html=1;fillColor=#ffe6cc;strokeColor=#d79b00;fontStyle=1;fontSize=14;" vertex="1" parent="1">
          <mxGeometry x="160" y="430" width="250" height="40" as="geometry" />
        </mxCell>
        <mxCell id="G4z690N9QdItLMLLU8V_-27" style="edgeStyle=orthogonalEdgeStyle;curved=1;rounded=0;orthogonalLoop=1;jettySize=auto;html=1;entryX=0;entryY=0.5;entryDx=0;entryDy=0;fontSize=14;fillColor=#fff2cc;strokeColor=#d6b656;strokeWidth=2;" edge="1" parent="1" source="G4z690N9QdItLMLLU8V_-6" target="G4z690N9QdItLMLLU8V_-23">
          <mxGeometry relative="1" as="geometry" />
        </mxCell>
        <mxCell id="G4z690N9QdItLMLLU8V_-6" value="/v2/user/save" style="rounded=0;whiteSpace=wrap;html=1;fillColor=#fff2cc;strokeColor=#d6b656;fontStyle=1;fontSize=14;" vertex="1" parent="1">
          <mxGeometry x="160" y="490" width="250" height="40" as="geometry" />
        </mxCell>
        <mxCell id="G4z690N9QdItLMLLU8V_-7" value="Consumer-3" style="rounded=0;whiteSpace=wrap;html=1;verticalAlign=top;" vertex="1" parent="1">
          <mxGeometry x="30" y="600" width="320" height="190" as="geometry" />
        </mxCell>
        <mxCell id="G4z690N9QdItLMLLU8V_-28" style="edgeStyle=orthogonalEdgeStyle;curved=1;rounded=0;orthogonalLoop=1;jettySize=auto;html=1;entryX=0;entryY=0.5;entryDx=0;entryDy=0;fontSize=14;fillColor=#ffe6cc;strokeColor=#d79b00;strokeWidth=2;" edge="1" parent="1" source="G4z690N9QdItLMLLU8V_-8" target="G4z690N9QdItLMLLU8V_-22">
          <mxGeometry relative="1" as="geometry" />
        </mxCell>
        <mxCell id="G4z690N9QdItLMLLU8V_-8" value="/v2/order/create" style="rounded=0;whiteSpace=wrap;html=1;fillColor=#ffe6cc;strokeColor=#d79b00;fontStyle=1;fontSize=14;" vertex="1" parent="1">
          <mxGeometry x="160" y="650" width="250" height="40" as="geometry" />
        </mxCell>
        <mxCell id="G4z690N9QdItLMLLU8V_-29" style="edgeStyle=orthogonalEdgeStyle;curved=1;rounded=0;orthogonalLoop=1;jettySize=auto;html=1;entryX=0;entryY=0.5;entryDx=0;entryDy=0;fontSize=14;fillColor=#d5e8d4;strokeColor=#82b366;strokeWidth=2;" edge="1" parent="1" source="G4z690N9QdItLMLLU8V_-9" target="G4z690N9QdItLMLLU8V_-14">
          <mxGeometry relative="1" as="geometry" />
        </mxCell>
        <mxCell id="G4z690N9QdItLMLLU8V_-9" value="/v1/item/save" style="rounded=0;whiteSpace=wrap;html=1;fillColor=#d5e8d4;strokeColor=#82b366;fontStyle=1;fontSize=14;" vertex="1" parent="1">
          <mxGeometry x="160" y="710" width="250" height="40" as="geometry" />
        </mxCell>
        <mxCell id="G4z690N9QdItLMLLU8V_-10" value="Provider" style="rounded=0;whiteSpace=wrap;html=1;verticalAlign=top;" vertex="1" parent="1">
          <mxGeometry x="540" y="330" width="320" height="280" as="geometry" />
        </mxCell>
        <mxCell id="G4z690N9QdItLMLLU8V_-11" value="/v1/order/create" style="rounded=0;whiteSpace=wrap;html=1;fillColor=#dae8fc;strokeColor=#6c8ebf;fontStyle=1;fontSize=14;" vertex="1" parent="1">
          <mxGeometry x="560" y="365" width="170" height="40" as="geometry" />
        </mxCell>
        <mxCell id="G4z690N9QdItLMLLU8V_-12" value="/v1/item/save" style="rounded=0;whiteSpace=wrap;html=1;fillColor=#d5e8d4;strokeColor=#82b366;fontStyle=1;fontSize=14;" vertex="1" parent="1">
          <mxGeometry x="550" y="425" width="180" height="40" as="geometry" />
        </mxCell>
        <mxCell id="G4z690N9QdItLMLLU8V_-13" value="" style="ellipse;whiteSpace=wrap;html=1;aspect=fixed;" vertex="1" parent="1">
          <mxGeometry x="520" y="360" width="50" height="50" as="geometry" />
        </mxCell>
        <mxCell id="G4z690N9QdItLMLLU8V_-14" value="" style="ellipse;whiteSpace=wrap;html=1;aspect=fixed;" vertex="1" parent="1">
          <mxGeometry x="520" y="420" width="50" height="50" as="geometry" />
        </mxCell>
        <mxCell id="G4z690N9QdItLMLLU8V_-20" value="/v2/order/create" style="rounded=0;whiteSpace=wrap;html=1;fillColor=#ffe6cc;strokeColor=#d79b00;fontStyle=1;fontSize=14;" vertex="1" parent="1">
          <mxGeometry x="560" y="485" width="170" height="40" as="geometry" />
        </mxCell>
        <mxCell id="G4z690N9QdItLMLLU8V_-21" value="/v2/item/save" style="rounded=0;whiteSpace=wrap;html=1;fillColor=#fff2cc;strokeColor=#d6b656;fontStyle=1;fontSize=14;" vertex="1" parent="1">
          <mxGeometry x="550" y="545" width="180" height="40" as="geometry" />
        </mxCell>
        <mxCell id="G4z690N9QdItLMLLU8V_-22" value="" style="ellipse;whiteSpace=wrap;html=1;aspect=fixed;" vertex="1" parent="1">
          <mxGeometry x="520" y="480" width="50" height="50" as="geometry" />
        </mxCell>
        <mxCell id="G4z690N9QdItLMLLU8V_-23" value="" style="ellipse;whiteSpace=wrap;html=1;aspect=fixed;" vertex="1" parent="1">
          <mxGeometry x="520" y="540" width="50" height="50" as="geometry" />
        </mxCell>
        <mxCell id="G4z690N9QdItLMLLU8V_-30" value="后端开发同学解决" style="text;html=1;strokeColor=none;fillColor=none;align=center;verticalAlign=middle;whiteSpace=wrap;rounded=0;fontSize=17;fontStyle=1" vertex="1" parent="1">
          <mxGeometry x="430" y="80" width="160" height="60" as="geometry" />
        </mxCell>
        <mxCell id="G4z690N9QdItLMLLU8V_-31" value="Consumer-1" style="rounded=0;whiteSpace=wrap;html=1;verticalAlign=top;" vertex="1" parent="1">
          <mxGeometry x="20" y="930" width="320" height="190" as="geometry" />
        </mxCell>
        <mxCell id="G4z690N9QdItLMLLU8V_-32" style="edgeStyle=orthogonalEdgeStyle;rounded=0;orthogonalLoop=1;jettySize=auto;html=1;entryX=0;entryY=0.5;entryDx=0;entryDy=0;fontSize=14;curved=1;fillColor=#dae8fc;strokeColor=#6c8ebf;strokeWidth=2;" edge="1" parent="1" source="G4z690N9QdItLMLLU8V_-33" target="G4z690N9QdItLMLLU8V_-49">
          <mxGeometry relative="1" as="geometry" />
        </mxCell>
        <mxCell id="G4z690N9QdItLMLLU8V_-33" value="/v1/order/create" style="rounded=0;whiteSpace=wrap;html=1;fillColor=#dae8fc;strokeColor=#6c8ebf;fontStyle=1;fontSize=14;" vertex="1" parent="1">
          <mxGeometry x="150" y="980" width="250" height="40" as="geometry" />
        </mxCell>
        <mxCell id="G4z690N9QdItLMLLU8V_-34" style="edgeStyle=orthogonalEdgeStyle;curved=1;rounded=0;orthogonalLoop=1;jettySize=auto;html=1;entryX=0;entryY=0.5;entryDx=0;entryDy=0;fontSize=14;fillColor=#d5e8d4;strokeColor=#82b366;strokeWidth=2;" edge="1" parent="1" source="G4z690N9QdItLMLLU8V_-35" target="G4z690N9QdItLMLLU8V_-50">
          <mxGeometry relative="1" as="geometry" />
        </mxCell>
        <mxCell id="G4z690N9QdItLMLLU8V_-35" value="/v1/item/save" style="rounded=0;whiteSpace=wrap;html=1;fillColor=#d5e8d4;strokeColor=#82b366;fontStyle=1;fontSize=14;" vertex="1" parent="1">
          <mxGeometry x="150" y="1040" width="250" height="40" as="geometry" />
        </mxCell>
        <mxCell id="G4z690N9QdItLMLLU8V_-36" value="Consumer-2" style="rounded=0;whiteSpace=wrap;html=1;verticalAlign=top;" vertex="1" parent="1">
          <mxGeometry x="20" y="1150" width="320" height="190" as="geometry" />
        </mxCell>
        <mxCell id="G4z690N9QdItLMLLU8V_-37" style="edgeStyle=orthogonalEdgeStyle;curved=1;rounded=0;orthogonalLoop=1;jettySize=auto;html=1;entryX=0;entryY=0.5;entryDx=0;entryDy=0;fontSize=14;fillColor=#ffe6cc;strokeColor=#d79b00;strokeWidth=2;" edge="1" parent="1" source="G4z690N9QdItLMLLU8V_-38" target="G4z690N9QdItLMLLU8V_-63">
          <mxGeometry relative="1" as="geometry">
            <mxPoint x="520" y="1120" as="targetPoint" />
          </mxGeometry>
        </mxCell>
        <mxCell id="G4z690N9QdItLMLLU8V_-38" value="/v2/order/create" style="rounded=0;whiteSpace=wrap;html=1;fillColor=#ffe6cc;strokeColor=#d79b00;fontStyle=1;fontSize=14;" vertex="1" parent="1">
          <mxGeometry x="150" y="1200" width="250" height="40" as="geometry" />
        </mxCell>
        <mxCell id="G4z690N9QdItLMLLU8V_-39" style="edgeStyle=orthogonalEdgeStyle;curved=1;rounded=0;orthogonalLoop=1;jettySize=auto;html=1;entryX=0;entryY=0.5;entryDx=0;entryDy=0;fontSize=14;fillColor=#fff2cc;strokeColor=#d6b656;strokeWidth=2;" edge="1" parent="1" source="G4z690N9QdItLMLLU8V_-40" target="G4z690N9QdItLMLLU8V_-64">
          <mxGeometry relative="1" as="geometry">
            <mxPoint x="520" y="1180" as="targetPoint" />
          </mxGeometry>
        </mxCell>
        <mxCell id="G4z690N9QdItLMLLU8V_-40" value="/v2/user/save" style="rounded=0;whiteSpace=wrap;html=1;fillColor=#fff2cc;strokeColor=#d6b656;fontStyle=1;fontSize=14;" vertex="1" parent="1">
          <mxGeometry x="150" y="1260" width="250" height="40" as="geometry" />
        </mxCell>
        <mxCell id="G4z690N9QdItLMLLU8V_-41" value="Consumer-3" style="rounded=0;whiteSpace=wrap;html=1;verticalAlign=top;" vertex="1" parent="1">
          <mxGeometry x="20" y="1370" width="320" height="190" as="geometry" />
        </mxCell>
        <mxCell id="G4z690N9QdItLMLLU8V_-42" style="edgeStyle=orthogonalEdgeStyle;curved=1;rounded=0;orthogonalLoop=1;jettySize=auto;html=1;entryX=0;entryY=0.5;entryDx=0;entryDy=0;fontSize=14;fillColor=#ffe6cc;strokeColor=#d79b00;strokeWidth=2;" edge="1" parent="1" source="G4z690N9QdItLMLLU8V_-43" target="G4z690N9QdItLMLLU8V_-63">
          <mxGeometry relative="1" as="geometry">
            <mxPoint x="520" y="1120" as="targetPoint" />
          </mxGeometry>
        </mxCell>
        <mxCell id="G4z690N9QdItLMLLU8V_-43" value="/v2/order/create" style="rounded=0;whiteSpace=wrap;html=1;fillColor=#ffe6cc;strokeColor=#d79b00;fontStyle=1;fontSize=14;" vertex="1" parent="1">
          <mxGeometry x="150" y="1420" width="250" height="40" as="geometry" />
        </mxCell>
        <mxCell id="G4z690N9QdItLMLLU8V_-44" style="edgeStyle=orthogonalEdgeStyle;curved=1;rounded=0;orthogonalLoop=1;jettySize=auto;html=1;entryX=0;entryY=0.5;entryDx=0;entryDy=0;fontSize=14;fillColor=#d5e8d4;strokeColor=#82b366;strokeWidth=2;" edge="1" parent="1" source="G4z690N9QdItLMLLU8V_-45" target="G4z690N9QdItLMLLU8V_-50">
          <mxGeometry relative="1" as="geometry" />
        </mxCell>
        <mxCell id="G4z690N9QdItLMLLU8V_-45" value="/v1/item/save" style="rounded=0;whiteSpace=wrap;html=1;fillColor=#d5e8d4;strokeColor=#82b366;fontStyle=1;fontSize=14;" vertex="1" parent="1">
          <mxGeometry x="150" y="1480" width="250" height="40" as="geometry" />
        </mxCell>
        <mxCell id="G4z690N9QdItLMLLU8V_-46" value="Provider-v1" style="rounded=0;whiteSpace=wrap;html=1;verticalAlign=top;" vertex="1" parent="1">
          <mxGeometry x="540" y="945" width="320" height="175" as="geometry" />
        </mxCell>
        <mxCell id="G4z690N9QdItLMLLU8V_-47" value="/v1/order/create" style="rounded=0;whiteSpace=wrap;html=1;fillColor=#dae8fc;strokeColor=#6c8ebf;fontStyle=1;fontSize=14;" vertex="1" parent="1">
          <mxGeometry x="560" y="980" width="170" height="40" as="geometry" />
        </mxCell>
        <mxCell id="G4z690N9QdItLMLLU8V_-48" value="/v1/item/save" style="rounded=0;whiteSpace=wrap;html=1;fillColor=#d5e8d4;strokeColor=#82b366;fontStyle=1;fontSize=14;" vertex="1" parent="1">
          <mxGeometry x="550" y="1040" width="180" height="40" as="geometry" />
        </mxCell>
        <mxCell id="G4z690N9QdItLMLLU8V_-49" value="" style="ellipse;whiteSpace=wrap;html=1;aspect=fixed;" vertex="1" parent="1">
          <mxGeometry x="520" y="975" width="50" height="50" as="geometry" />
        </mxCell>
        <mxCell id="G4z690N9QdItLMLLU8V_-50" value="" style="ellipse;whiteSpace=wrap;html=1;aspect=fixed;" vertex="1" parent="1">
          <mxGeometry x="520" y="1035" width="50" height="50" as="geometry" />
        </mxCell>
        <mxCell id="G4z690N9QdItLMLLU8V_-56" value="Provider-v2" style="rounded=0;whiteSpace=wrap;html=1;verticalAlign=top;" vertex="1" parent="1">
          <mxGeometry x="540" y="1260" width="320" height="170" as="geometry" />
        </mxCell>
        <mxCell id="G4z690N9QdItLMLLU8V_-61" value="/v2/order/create" style="rounded=0;whiteSpace=wrap;html=1;fillColor=#ffe6cc;strokeColor=#d79b00;fontStyle=1;fontSize=14;" vertex="1" parent="1">
          <mxGeometry x="560" y="1295" width="170" height="40" as="geometry" />
        </mxCell>
        <mxCell id="G4z690N9QdItLMLLU8V_-62" value="/v2/item/save" style="rounded=0;whiteSpace=wrap;html=1;fillColor=#fff2cc;strokeColor=#d6b656;fontStyle=1;fontSize=14;" vertex="1" parent="1">
          <mxGeometry x="550" y="1355" width="180" height="40" as="geometry" />
        </mxCell>
        <mxCell id="G4z690N9QdItLMLLU8V_-63" value="" style="ellipse;whiteSpace=wrap;html=1;aspect=fixed;" vertex="1" parent="1">
          <mxGeometry x="520" y="1290" width="50" height="50" as="geometry" />
        </mxCell>
        <mxCell id="G4z690N9QdItLMLLU8V_-64" value="" style="ellipse;whiteSpace=wrap;html=1;aspect=fixed;" vertex="1" parent="1">
          <mxGeometry x="520" y="1350" width="50" height="50" as="geometry" />
        </mxCell>
        <mxCell id="G4z690N9QdItLMLLU8V_-65" value="后端开发+运维同学解决" style="text;html=1;strokeColor=none;fillColor=none;align=center;verticalAlign=middle;whiteSpace=wrap;rounded=0;fontSize=17;fontStyle=1" vertex="1" parent="1">
          <mxGeometry x="350" y="850" width="210" height="60" as="geometry" />
        </mxCell>
      </root>
    </mxGraphModel>
  </diagram>
</mxfile>
